<svg width="60" height="61" viewBox="0 0 60 61" fill="none" xmlns="http://www.w3.org/2000/svg">
<path d="M52.5 32.6785H42.5C41.1193 32.6785 40 33.7978 40 35.1785V47.6785C40 49.0592 41.1193 50.1785 42.5 50.1785H50C51.3807 50.1785 52.5 49.0592 52.5 47.6785V32.6785ZM52.5 32.6785C52.5 20.2521 42.4264 10.1785 30 10.1785C17.5736 10.1785 7.5 20.2521 7.5 32.6785M7.5 32.6785H17.5C18.8807 32.6785 20 33.7978 20 35.1785V47.6785C20 49.0592 18.8807 50.1785 17.5 50.1785H10C8.61929 50.1785 7.5 49.0592 7.5 47.6785V32.6785Z" stroke="#10284F" stroke-width="2" stroke-linecap="round" stroke-linejoin="round"/>
</svg>
