<svg width="61" height="61" viewBox="0 0 61 61" fill="none" xmlns="http://www.w3.org/2000/svg">
<path d="M50.8722 17.5998L31.7215 6.54319C30.948 6.09661 29.995 6.09661 29.2215 6.54319L10.0709 17.5998C9.29739 18.0464 8.82089 18.8717 8.82089 19.7649V41.8781C8.82089 42.7713 9.29739 43.5966 10.0709 44.0432L29.2215 55.0998C29.995 55.5464 30.948 55.5464 31.7215 55.0998L50.8722 44.0432C51.6457 43.5966 52.1222 42.7713 52.1222 41.8781V19.7649C52.1222 18.8717 51.6457 18.0464 50.8722 17.5998Z" stroke="#10284F" stroke-width="2" stroke-linecap="round" stroke-linejoin="round"/>
<path d="M30.4713 38.3215C34.6134 38.3215 37.9713 34.9636 37.9713 30.8215C37.9713 26.6794 34.6134 23.3215 30.4713 23.3215C26.3291 23.3215 22.9713 26.6794 22.9713 30.8215C22.9713 34.9636 26.3291 38.3215 30.4713 38.3215Z" stroke="#10284F" stroke-width="2" stroke-linecap="round" stroke-linejoin="round"/>
</svg>
