<svg width="61" height="61" viewBox="0 0 61 61" fill="none" xmlns="http://www.w3.org/2000/svg">
<path d="M17.9713 50.1785C17.9713 46.0363 23.5677 42.6785 30.4713 42.6785C37.3748 42.6785 42.9713 46.0363 42.9713 50.1785M45.4713 35.8022C49.886 36.9596 52.9713 39.6027 52.9713 42.6782M15.4713 35.8022C11.0565 36.9596 7.97128 39.6027 7.97128 42.6782M45.4713 25.7687C47.0057 24.3954 47.9713 22.3997 47.9713 20.1785C47.9713 16.0363 44.6134 12.6785 40.4713 12.6785C38.5504 12.6785 36.7982 13.4006 35.4713 14.5882M15.4713 25.7687C13.9369 24.3954 12.9713 22.3997 12.9713 20.1785C12.9713 16.0363 16.3291 12.6785 20.4713 12.6785C22.3922 12.6785 24.1444 13.4006 25.4713 14.5882M37.9713 27.6785C37.9713 31.8206 34.6134 35.1785 30.4713 35.1785C26.3291 35.1785 22.9713 31.8206 22.9713 27.6785C22.9713 23.5363 26.3291 20.1785 30.4713 20.1785C34.6134 20.1785 37.9713 23.5363 37.9713 27.6785Z" stroke="#10284F" stroke-width="2" stroke-linecap="round" stroke-linejoin="round"/>
</svg>
